# xmcd
#
# Track frame offsets: 
#        150
#        6813
#        17644
#        38252
#        52344
#        64722
#        78065
#        87235
#        96266
#        115519
#        146458
#        162590
#        182824
#        196320
#        213150
#
# Disc length: 3107 seconds
#
# Revision: 1
# Processed by: cddbd v1.5.2PL0 Copyright (c) Steve Scherf et al.
# Submitted via: ExactAudioCopyFreeDBPlugin 1.0
#
DISCID=ba0c210f
DTITLE=Various Artist - Honeydripper (A Film by John Sayles)
DYEAR=2008
DGENRE=Rhythm and Blues
TTITLE0=The Aces of Spade - Honeydripper Lounge
TTITLE1=Mason Daring, Frank Gallagher, Tim Jackson and Mike Turk - Tall 
TTITLE1=Cotton
TTITLE2=Mable John - No Matter How She Done It
TTITLE3=New Beginnings Ministry - Standing By the Highway
TTITLE4=Hank Williams - Move It On Over
TTITLE5=Lil Green - Why Don't You Do Right
TTITLE6=Keb' Mo' - Stack O Lee
TTITLE7=New Beginnings Ministry - You Got to Choose
TTITLE8=Danny Glover - Goin' Down Slow
TTITLE9=Memphis Slim - Bertha May
TTITLE10=Gary Clark, Jr. - Good Rockin' Tonight
TTITLE11=Gary Clark, Jr. - China Doll
TTITLE12=Gary Clark, Jr. - Blue Light Boogie
TTITLE13=Barrence Whitfield - Music Keeps Rollin' On
TTITLE14=Ruth Brown - Things About Coming My Way
EXTD=
EXTT0=
EXTT1=
EXTT2=
EXTT3=
EXTT4=
EXTT5=
EXTT6=
EXTT7=
EXTT8=
EXTT9=
EXTT10=
EXTT11=
EXTT12=
EXTT13=
EXTT14=
PLAYORDER=
